<svg xmlns="http://www.w3.org/2000/svg" version="1.1" xmlns:xlink="http://www.w3.org/1999/xlink" xmlns:svgjs="http://svgjs.com/svgjs" width="1440" height="560" preserveAspectRatio="none" viewBox="0 0 1440 560" style="user-select: auto;"><g mask="url(&quot;#SvgjsMask1270&quot;)" fill="none"><g transform="translate(0, 0)" stroke-linecap="round"><path d="M110 154.86 L110 405.14" stroke-width="15" stroke="rgba(0, 0, 0, 1)"></path><path d="M130 170.02 L130 389.98" stroke-width="15" stroke="rgba(255, 255, 255, 1)"></path><path d="M150 171.13 L150 388.87" stroke-width="15" stroke="rgba(255, 255, 255, 1)"></path><path d="M170 123.02 L170 436.98" stroke-width="15" stroke="rgba(0, 0, 0, 1)"></path><path d="M190 117.28 L190 442.73" stroke-width="15" stroke="rgba(255, 255, 255, 1)"></path><path d="M210 139.56 L210 420.44" stroke-width="15" stroke="rgba(255, 255, 255, 1)"></path><path d="M230 50.63 L230 509.38" stroke-width="15" stroke="rgba(0, 0, 0, 1)"></path><path d="M250 130.28 L250 429.73" stroke-width="15" stroke="rgba(0, 0, 0, 1)"></path><path d="M270 152.84 L270 407.15" stroke-width="15" stroke="rgba(255, 255, 255, 1)"></path><path d="M290 98.74 L290 461.26" stroke-width="15" stroke="rgba(0, 0, 0, 1)"></path><path d="M310 66.59 L310 493.41" stroke-width="15" stroke="rgba(0, 0, 0, 1)"></path><path d="M330 73.47 L330 486.52" stroke-width="15" stroke="rgba(0, 0, 0, 1)"></path><path d="M350 254.57 L350 305.43" stroke-width="15" stroke="rgba(0, 0, 0, 1)"></path><path d="M370 195.24 L370 364.76" stroke-width="15" stroke="rgba(255, 255, 255, 1)"></path><path d="M390 176.64 L390 383.36" stroke-width="15" stroke="rgba(255, 255, 255, 1)"></path><path d="M410 239.52 L410 320.48" stroke-width="15" stroke="rgba(0, 0, 0, 1)"></path><path d="M430 171.17 L430 388.83" stroke-width="15" stroke="rgba(255, 255, 255, 1)"></path><path d="M450 170.17 L450 389.83" stroke-width="15" stroke="rgba(0, 0, 0, 1)"></path><path d="M470 64.4 L470 495.61" stroke-width="15" stroke="rgba(0, 0, 0, 1)"></path><path d="M490 185.85 L490 374.15" stroke-width="15" stroke="rgba(255, 255, 255, 1)"></path><path d="M510 93.56 L510 466.44" stroke-width="15" stroke="rgba(0, 0, 0, 1)"></path><path d="M530 222.31 L530 337.69" stroke-width="15" stroke="rgba(0, 0, 0, 1)"></path><path d="M550 249.68 L550 310.32" stroke-width="15" stroke="rgba(0, 0, 0, 1)"></path><path d="M570 200.15 L570 359.85" stroke-width="15" stroke="rgba(255, 255, 255, 1)"></path><path d="M590 229.91 L590 330.09" stroke-width="15" stroke="rgba(255, 255, 255, 1)"></path><path d="M610 50.96 L610 509.04" stroke-width="15" stroke="rgba(255, 255, 255, 1)"></path><path d="M630 204.16 L630 355.85" stroke-width="15" stroke="rgba(255, 255, 255, 1)"></path><path d="M650 231.81 L650 328.19" stroke-width="15" stroke="rgba(0, 0, 0, 1)"></path><path d="M670 103.66 L670 456.34" stroke-width="15" stroke="rgba(0, 0, 0, 1)"></path><path d="M690 191.64 L690 368.36" stroke-width="15" stroke="rgba(255, 255, 255, 1)"></path><path d="M710 156.67 L710 403.33" stroke-width="15" stroke="rgba(0, 0, 0, 1)"></path><path d="M730 187.98 L730 372.02" stroke-width="15" stroke="rgba(0, 0, 0, 1)"></path><path d="M750 115.9 L750 444.1" stroke-width="15" stroke="rgba(0, 0, 0, 1)"></path><path d="M770 103.36 L770 456.64" stroke-width="15" stroke="rgba(255, 255, 255, 1)"></path><path d="M790 192.25 L790 367.75" stroke-width="15" stroke="rgba(0, 0, 0, 1)"></path><path d="M810 46.51 L810 513.49" stroke-width="15" stroke="rgba(0, 0, 0, 1)"></path><path d="M830 143.47 L830 416.52" stroke-width="15" stroke="rgba(255, 255, 255, 1)"></path><path d="M850 46.43 L850 513.57" stroke-width="15" stroke="rgba(0, 0, 0, 1)"></path><path d="M870 117.97 L870 442.03" stroke-width="15" stroke="rgba(255, 255, 255, 1)"></path><path d="M890 177.87 L890 382.13" stroke-width="15" stroke="rgba(255, 255, 255, 1)"></path><path d="M910 92.01 L910 467.99" stroke-width="15" stroke="rgba(255, 255, 255, 1)"></path><path d="M930 185.03 L930 374.97" stroke-width="15" stroke="rgba(0, 0, 0, 1)"></path><path d="M950 199.49 L950 360.51" stroke-width="15" stroke="rgba(255, 255, 255, 1)"></path><path d="M970 195.08 L970 364.92" stroke-width="15" stroke="rgba(0, 0, 0, 1)"></path><path d="M990 170.22 L990 389.78" stroke-width="15" stroke="rgba(0, 0, 0, 1)"></path><path d="M1010 224.22 L1010 335.77" stroke-width="15" stroke="rgba(0, 0, 0, 1)"></path><path d="M1030 198.63 L1030 361.38" stroke-width="15" stroke="rgba(255, 255, 255, 1)"></path><path d="M1050 174.74 L1050 385.26" stroke-width="15" stroke="rgba(255, 255, 255, 1)"></path><path d="M1070 188.31 L1070 371.69" stroke-width="15" stroke="rgba(0, 0, 0, 1)"></path><path d="M1090 115.43 L1090 444.57" stroke-width="15" stroke="rgba(255, 255, 255, 1)"></path><path d="M1110 173.5 L1110 386.5" stroke-width="15" stroke="rgba(0, 0, 0, 1)"></path><path d="M1130 156.63 L1130 403.37" stroke-width="15" stroke="rgba(0, 0, 0, 1)"></path><path d="M1150 87.01 L1150 472.99" stroke-width="15" stroke="rgba(0, 0, 0, 1)"></path><path d="M1170 243.16 L1170 316.85" stroke-width="15" stroke="rgba(255, 255, 255, 1)"></path><path d="M1190 135.51 L1190 424.49" stroke-width="15" stroke="rgba(255, 255, 255, 1)"></path><path d="M1210 56.54 L1210 503.46" stroke-width="15" stroke="rgba(255, 255, 255, 1)"></path><path d="M1230 152.84 L1230 407.15" stroke-width="15" stroke="rgba(0, 0, 0, 1)"></path><path d="M1250 92.22 L1250 467.78" stroke-width="15" stroke="rgba(0, 0, 0, 1)"></path><path d="M1270 214.18 L1270 345.82" stroke-width="15" stroke="rgba(0, 0, 0, 1)"></path><path d="M1290 94.88 L1290 465.12" stroke-width="15" stroke="rgba(0, 0, 0, 1)"></path><path d="M1310 98.81 L1310 461.19" stroke-width="15" stroke="rgba(255, 255, 255, 1)"></path><path d="M1330 175.69 L1330 384.31" stroke-width="15" stroke="rgba(255, 255, 255, 1)"></path></g></g><defs><mask id="SvgjsMask1270"><rect width="1440" height="560" fill="#ffffff"></rect></mask></defs></svg>